<svg xmlns="http://www.w3.org/2000/svg" viewBox="0 0 192 192" role="img" aria-label="Q版英国短毛猫">
  <defs>
    <radialGradient id="body" cx="48%" cy="32%" r="62%">
      <stop offset="0" stop-color="#dce5ea"/>
      <stop offset="0.58" stop-color="#aebbc4"/>
      <stop offset="1" stop-color="#788892"/>
    </radialGradient>
    <linearGradient id="shadow" x1="48" x2="144" y1="151" y2="175">
      <stop stop-color="#8aa0ab" stop-opacity=".24"/>
      <stop offset="1" stop-color="#5b6e78" stop-opacity=".1"/>
    </linearGradient>
  </defs>
  <ellipse cx="96" cy="163" rx="58" ry="14" fill="url(#shadow)"/>
  <path d="M45 102c0-34 20-59 51-59s51 25 51 59c0 39-19 60-51 60s-51-21-51-60Z" fill="url(#body)"/>
  <path d="M59 62c-14-25 5-37 29-18M133 62c14-25-5-37-29-18" fill="#8fa0aa"/>
  <path d="M64 57c-6-13 3-18 15-8M128 57c6-13-3-18-15-8" fill="#f2b9ad" opacity=".9"/>
  <path d="M49 112c-18 2-28 12-32 29M143 112c18 2 28 12 32 29" fill="none" stroke="#7c8e98" stroke-width="10" stroke-linecap="round"/>
  <path d="M67 148c-8 12-18 17-32 15M125 148c8 12 18 17 32 15" fill="none" stroke="#7c8e98" stroke-width="10" stroke-linecap="round"/>
  <path d="M140 126c17 2 28-3 31-14 2-8-3-15-13-16" fill="none" stroke="#7c8e98" stroke-width="13" stroke-linecap="round"/>
  <ellipse cx="96" cy="92" rx="44" ry="41" fill="#c4cfd6"/>
  <path d="M57 90c6-23 20-37 39-37s33 14 39 37" fill="#d8e1e6" opacity=".52"/>
  <circle cx="75" cy="92" r="8" fill="#17232a"/>
  <circle cx="117" cy="92" r="8" fill="#17232a"/>
  <circle cx="72" cy="89" r="2.5" fill="#fff"/>
  <circle cx="114" cy="89" r="2.5" fill="#fff"/>
  <path d="M92 106c2-3 6-3 8 0 1 2 0 5-4 6-4-1-5-4-4-6Z" fill="#47555f"/>
  <path d="M96 112v6M96 118c-7 6-14 6-20 0M96 118c7 6 14 6 20 0" fill="none" stroke="#47555f" stroke-width="4" stroke-linecap="round"/>
  <circle cx="64" cy="108" r="9" fill="#f0adad" opacity=".5"/>
  <circle cx="128" cy="108" r="9" fill="#f0adad" opacity=".5"/>
  <path d="M62 78c7-5 15-6 24-3M130 78c-7-5-15-6-24-3" fill="none" stroke="#697a84" stroke-width="5" stroke-linecap="round" opacity=".6"/>
  <path d="M48 97h25M48 108h24M144 97h-25M144 108h-24" fill="none" stroke="#697a84" stroke-width="4" stroke-linecap="round" opacity=".58"/>
</svg>
